<svg width="24" height="24" viewBox="0 0 24 24" fill="none" xmlns="http://www.w3.org/2000/svg">
<path d="M12 22C17.5228 22 22 17.5228 22 12C22 6.47715 17.5228 2 12 2C6.47715 2 2 6.47715 2 12C2 17.5228 6.47715 22 12 22Z" fill="#BCC1C4"/>
<path d="M16.5833 7.41673C16.8135 7.64685 16.8135 8.01994 16.5833 8.25006L8.25006 16.5833C8.01994 16.8135 7.64685 16.8135 7.41673 16.5833C7.18661 16.3532 7.18661 15.9801 7.41673 15.75L15.75 7.41673C15.9801 7.18661 16.3532 7.18661 16.5833 7.41673Z" fill="white"/>
<path d="M7.41708 8.25009L15.7503 16.5833C15.9804 16.8135 16.3535 16.8135 16.5837 16.5833C16.8138 16.3532 16.8138 15.9801 16.5837 15.75L8.2504 7.41676C8.02029 7.18664 7.64719 7.18664 7.41708 7.41676C7.18696 7.64687 7.18696 8.01997 7.41708 8.25009Z" fill="white"/>
</svg>
