<svg width="500" height="500" viewBox="0 0 500 500" fill="none" xmlns="http://www.w3.org/2000/svg">
<path d="M32 6H48" stroke="#181A1D" stroke-width="1.5" stroke-linecap="round" stroke-linejoin="round"/>
<path d="M32 12H48" stroke="#181A1D" stroke-width="1.5" stroke-linecap="round" stroke-linejoin="round"/>
<path d="M32 18H48" stroke="#181A1D" stroke-width="1.5" stroke-linecap="round" stroke-linejoin="round"/>
<path d="M11.6667 18.6667C15.5327 18.6667 18.6667 15.5327 18.6667 11.6667C18.6667 7.80069 15.5327 4.66669 11.6667 4.66669C7.80069 4.66669 4.66669 7.80069 4.66669 11.6667C4.66669 15.5327 7.80069 18.6667 11.6667 18.6667Z" stroke="#181A1D" stroke-width="1.5" stroke-miterlimit="10"/>
<path d="M22.803 23.8636C23.0959 24.1565 23.5707 24.1565 23.8636 23.8636C24.1565 23.5707 24.1565 23.0959 23.8636 22.803L22.803 23.8636ZM15.803 16.8636L22.803 23.8636L23.8636 22.803L16.8636 15.803L15.803 16.8636Z" fill="#181A1D"/>
<path d="M7.0011 50.9996L23.0011 50.9996L23.0011 32.9996L7.0011 32.9996" stroke="#181A1D" stroke-width="1.5" stroke-linecap="round" stroke-linejoin="round"/>
<path d="M11.0011 44.9996L14.0011 41.9996L11.0011 38.9996" stroke="#181A1D" stroke-width="1.5" stroke-linecap="round" stroke-linejoin="round"/>
<path d="M5.0011 41.9996L14.0011 41.9996" stroke="#181A1D" stroke-width="1.5" stroke-miterlimit="10" stroke-linecap="round"/>
<path d="M14 96.8334C16.2552 96.8334 18.0834 95.0052 18.0834 92.75C18.0834 90.4949 16.2552 88.6667 14 88.6667C11.7449 88.6667 9.91669 90.4949 9.91669 92.75C9.91669 95.0052 11.7449 96.8334 14 96.8334Z" stroke="#181A1D" stroke-width="1.5" stroke-linecap="round" stroke-linejoin="round"/>
<path d="M4.66669 107.333H23.3334" stroke="#181A1D" stroke-width="1.5" stroke-linecap="round"/>
<path d="M4.66669 107.333C4.66669 103.467 7.80069 100.333 11.6667 100.333H16.3334C20.1993 100.333 23.3334 103.467 23.3334 107.333V107.333H4.66669V107.333Z" stroke="#181A1D" stroke-width="1.5" stroke-linejoin="round"/>
<path d="M22.1667 121.333H5.83335L4.66669 135.333H23.3334L22.1667 121.333Z" stroke="#181A1D" stroke-width="1.5" stroke-linejoin="round"/>
<path d="M10.5 123.667V120.167C10.5 118.234 12.067 116.667 14 116.667V116.667C15.933 116.667 17.5 118.234 17.5 120.167V123.667" stroke="#181A1D" stroke-width="1.5" stroke-linecap="round"/>
<path d="M10.9965 173.832H7.82812C6.72356 173.832 5.82812 174.727 5.82812 175.832V188.165C5.82812 189.27 6.72356 190.165 7.82813 190.165H20.1615C21.266 190.165 22.1615 189.27 22.1615 188.165V184.869" stroke="#181A1D" stroke-width="1.5" stroke-linecap="round" stroke-linejoin="round"/>
<path d="M19 174L22.5 177.5L19 181" stroke="#181A1D" stroke-width="1.5" stroke-linecap="round" stroke-linejoin="round"/>
<path d="M22.1667 177.332H17.5C15.567 177.332 14 178.899 14 180.832V183.166" stroke="#181A1D" stroke-width="1.5" stroke-linecap="round"/>
<path d="M38 40C41.3137 40 44 37.3137 44 34C44 30.6863 41.3137 28 38 28C34.6863 28 32 30.6863 32 34C32 37.3137 34.6863 40 38 40Z" stroke="#181A1D" stroke-width="1.5" stroke-miterlimit="10"/>
<path d="M47.4697 44.5303C47.7626 44.8232 48.2374 44.8232 48.5303 44.5303C48.8232 44.2374 48.8232 43.7626 48.5303 43.4697L47.4697 44.5303ZM41.4697 38.5303L47.4697 44.5303L48.5303 43.4697L42.5303 37.4697L41.4697 38.5303Z" fill="#181A1D"/>
<path d="M70.7848 30.2202C69.1763 28.5933 66.5726 28.5933 64.9642 30.2202L63.9956 31.1999L63.0269 30.2202C61.4185 28.5933 58.8148 28.5933 57.2063 30.2202C55.5979 31.8472 55.5979 34.4889 57.2063 36.1159L59.9256 38.8713L64.0044 43L70.7937 36.1247C72.4021 34.4977 72.4021 31.8559 70.7937 30.2289L70.7848 30.2202Z" stroke="#9FA2AA" stroke-width="1.5" stroke-linejoin="round"/>
<path d="M94 34L88 28L82 34" stroke="#181A1D" stroke-width="1.5" stroke-linecap="round" stroke-linejoin="round"/>
<path d="M88 44L88 28" stroke="#181A1D" stroke-width="1.5" stroke-miterlimit="10" stroke-linecap="round"/>
<path d="M70.7848 54.2202C69.1763 52.5933 66.5726 52.5933 64.9642 54.2202L63.9956 55.1999L63.0269 54.2202C61.4185 52.5933 58.8148 52.5933 57.2063 54.2202C55.5979 55.8472 55.5979 58.4889 57.2063 60.1159L59.9256 62.8713L64.0044 67L70.7937 60.1247C72.4021 58.4977 72.4021 55.8559 70.7937 54.2289L70.7848 54.2202Z" fill="#181A1D" stroke="#181A1D" stroke-width="1.5" stroke-linejoin="round"/>
<path d="M7.0011 78.9996L23.0011 78.9996L23.0011 60.9996L7.0011 60.9996" stroke="#181A1D" stroke-width="1.5" stroke-linecap="round" stroke-linejoin="round"/>
<path d="M8.00043 66.9996L5.00043 69.9996L8.00043 72.9996" stroke="#181A1D" stroke-width="1.5" stroke-linecap="round" stroke-linejoin="round"/>
<path d="M14.0004 69.9996L5.00043 69.9996" stroke="#181A1D" stroke-width="1.5" stroke-miterlimit="10" stroke-linecap="round"/>
<path d="M40 68C44.4183 68 48 64.4183 48 60C48 55.5817 44.4183 52 40 52C35.5817 52 32 55.5817 32 60C32 64.4183 35.5817 68 40 68Z" fill="#DEDEE4"/>
<path d="M37 57L43 63" stroke="white" stroke-linecap="round"/>
<path d="M43 57L37 63" stroke="white" stroke-linecap="round"/>
<path d="M36 74.6667V85.3334" stroke="#181A1D" stroke-linecap="round"/>
<path d="M41.3334 80H30.6667" stroke="#181A1D" stroke-linecap="round"/>
<path d="M57.3334 80H46.6667" stroke="#181A1D" stroke-linecap="round"/>
<path d="M72.6666 74V77.3333H69.3333" stroke="#54565B" stroke-linecap="round" stroke-linejoin="round"/>
<path d="M72.4419 77.3334C71.52 75.741 69.9734 74.6667 68 74.6667C65.0514 74.6667 62.6667 77.0514 62.6667 80C62.6667 82.9486 65.0514 85.3334 68 85.3334C70.4881 85.3334 72.5747 83.6353 73.1658 81.3334" stroke="#54565B" stroke-miterlimit="10" stroke-linecap="round"/>
<path d="M84 85.3334C86.9455 85.3334 89.3334 82.9455 89.3334 80C89.3334 77.0545 86.9455 74.6667 84 74.6667C81.0545 74.6667 78.6667 77.0545 78.6667 80C78.6667 82.9455 81.0545 85.3334 84 85.3334Z" stroke="#191919" stroke-linejoin="round"/>
<path d="M84 80V82" stroke="#191919" stroke-linecap="round"/>
<path d="M84 78V78.0001" stroke="#191919" stroke-linecap="round"/>
<path d="M96.7 77L95 77C94.4477 77 94 77.4477 94 78L94 85C94 85.5523 94.4477 86 95 86L102 86C102.552 86 103 85.5523 103 85L103 83.3" stroke="#54565B" stroke-linejoin="round"/>
<rect x="97" y="74" width="9" height="9" rx="1" stroke="#54565B" stroke-linejoin="round"/>
<path d="M180 74.6667V85.3334" stroke="white"/>
<path d="M185.333 80H174.667" stroke="white"/>
<path d="M34 90V98" stroke="#181A1D" stroke-linecap="round"/>
<path d="M38 94H30" stroke="#181A1D" stroke-linecap="round"/>
<path d="M50 94H42" stroke="#181A1D" stroke-linecap="round"/>
<path d="M54 94.5L57 97L62 91" stroke="#181A1D" stroke-linecap="round" stroke-linejoin="round"/>
<path d="M70.1851 89.128L71.2758 92.294H74.803C74.9931 92.294 75.0732 92.5262 74.9181 92.6305L72.0663 94.588L73.157 97.754C73.217 97.9246 73.0069 98.0715 72.8518 97.9625L70 96.0051L67.1482 97.9625C66.9931 98.0668 66.783 97.9246 66.843 97.754L67.9337 94.588L65.0819 92.6305C64.9268 92.5262 65.0069 92.294 65.197 92.294H68.7242L69.8149 89.128C69.8749 88.9573 70.1251 88.9573 70.1851 89.128Z" fill="#191919" stroke="#191919" stroke-linejoin="round"/>
<path d="M79.5 93.5L82 96L84.5 93.5" stroke="#181A1D" stroke-linecap="round" stroke-linejoin="round"/>
<path d="M78 98H86" stroke="#181A1D" stroke-miterlimit="10" stroke-linecap="round"/>
<path d="M82 90V96" stroke="#181A1D" stroke-miterlimit="10" stroke-linecap="round"/>
<path d="M60.1975 2.80887L61.3609 6.32669H65.1232C65.326 6.32669 65.4114 6.58473 65.246 6.70059L62.2041 8.87552L63.3675 12.3933C63.4315 12.5829 63.2074 12.7462 63.0419 12.6251L60 10.4501L56.9581 12.6251C56.7927 12.7409 56.5685 12.5829 56.6326 12.3933L57.796 8.87552L54.7541 6.70059C54.5886 6.58473 54.674 6.32669 54.8768 6.32669H58.6392L59.8026 2.80887C59.8666 2.61929 60.1334 2.61929 60.1975 2.80887Z" fill="#181A1D" stroke="#181A1D" stroke-linejoin="round"/>
<path d="M74 10L77 13L83 7" stroke="#181A1D" stroke-width="2" stroke-linecap="round" stroke-linejoin="round"/>
<path d="M99.5 14.5L95.5 11L99.5 7.5" stroke="#9FA2AA" stroke-linecap="round" stroke-linejoin="round"/>
<path d="M102.5 14.5L98.5 11L102.5 7.5" stroke="#9FA2AA" stroke-linecap="round" stroke-linejoin="round"/>
<path d="M164.5 14.5L168.5 11L164.5 7.5" stroke="#9FA2AA" stroke-linecap="round" stroke-linejoin="round"/>
<path d="M161.5 14.5L165.5 11L161.5 7.5" stroke="#9FA2AA" stroke-linecap="round" stroke-linejoin="round"/>
<path d="M106 36L110 40L118 32" stroke="#181A1D" stroke-width="2" stroke-linecap="round" stroke-linejoin="round"/>
<path d="M122.5 15L118.5 11L122.5 7" stroke="#9FA2AA" stroke-linecap="round" stroke-linejoin="round"/>
<path d="M141.5 15L145.5 11L141.5 7" stroke="#9FA2AA" stroke-linecap="round" stroke-linejoin="round"/>
<path d="M85.3333 55.3333V64.6666" stroke="#181A1D" stroke-miterlimit="10" stroke-linecap="round"/>
<path d="M90.6667 55.3333V64.6666" stroke="#181A1D" stroke-miterlimit="10" stroke-linecap="round"/>
<path d="M108.667 65.3334L117.333 60L108.667 54.6667V65.3334Z" stroke="#181A1D" stroke-linejoin="round"/>
<path d="M38.5 116.5L46 124L53.5 116.5" stroke="#191919" stroke-width="2" stroke-linecap="round" stroke-linejoin="round"/>
<path d="M34 130H58" stroke="#191919" stroke-width="2" stroke-miterlimit="10" stroke-linecap="round"/>
<path d="M46 106V124" stroke="#191919" stroke-width="2" stroke-miterlimit="10" stroke-linecap="round"/>
<path d="M74 103.333V116.667" stroke="#181A1D" stroke-width="1.25" stroke-linecap="round"/>
<path d="M80.6666 110H67.3333" stroke="#181A1D" stroke-width="1.25" stroke-linecap="round"/>
<path d="M145 29H127V43H145V29Z" stroke="#181A1D" stroke-linejoin="round"/>
<path d="M130 39L134 36L138 39L142 36" stroke="#181A1D" stroke-linecap="round" stroke-linejoin="round"/>
<path d="M131 34C131.552 34 132 33.5523 132 33C132 32.4477 131.552 32 131 32C130.448 32 130 32.4477 130 33C130 33.5523 130.448 34 131 34Z" fill="#181A1D"/>
<path d="M169 29H151V43H169V29Z" fill="#B1B3B8" stroke="#B1B3B8" stroke-width="1.5" stroke-linejoin="round"/>
<path d="M162 36L159 38V34L162 36Z" fill="white" stroke="white" stroke-width="1.5" stroke-linejoin="round"/>
<path d="M94 116.667C97.6819 116.667 100.667 113.682 100.667 110C100.667 106.318 97.6819 103.333 94 103.333C90.3181 103.333 87.3333 106.318 87.3333 110C87.3333 113.682 90.3181 116.667 94 116.667Z" stroke="#191919" stroke-width="1.25" stroke-linejoin="round"/>
<path d="M94 110V112.5" stroke="#191919" stroke-width="1.25" stroke-linecap="round"/>
<path d="M94 107.5V107.5" stroke="#191919" stroke-width="1.25" stroke-linecap="round"/>
<path d="M121.333 76.6667H110.667V85.3334H121.333V76.6667Z" stroke="#181A1D" stroke-linecap="round" stroke-linejoin="round"/>
<path d="M121.333 76.6667H110.667V80H121.333V76.6667Z" stroke="#181A1D" stroke-linecap="round" stroke-linejoin="round"/>
<path d="M112.667 74.6667V76" stroke="#181A1D" stroke-linecap="round" stroke-linejoin="round"/>
<path d="M119.333 74.6667V76" stroke="#181A1D" stroke-linecap="round" stroke-linejoin="round"/>
<path d="M121.5 104.167H106.5V115.833H121.5V104.167Z" stroke="#181A1D" stroke-linecap="round" stroke-linejoin="round"/>
<path d="M106.5 106.667L114 111.667L121.5 106.667" stroke="#181A1D" stroke-linecap="round" stroke-linejoin="round"/>
<path d="M90 90V98H98" stroke="#74767C" stroke-linecap="round" stroke-linejoin="round"/>
<path d="M130.667 116.667V109.167H127.333V116.667H130.667Z" stroke="#191919" stroke-width="1.25" stroke-linejoin="round"/>
<path d="M134 103.333L130.667 109.167V116.667H138.167L140.667 108.333H135.667V104.167L134 103.333Z" stroke="#191919" stroke-width="1.25" stroke-linejoin="round"/>
<path d="M126.668 74.667V81.3337H137.335" stroke="#54565B" stroke-linecap="round" stroke-linejoin="round"/>
<path d="M134 77.333L138 81.333L134 85.333" stroke="#54565B" stroke-linecap="round" stroke-linejoin="round"/>
<path d="M148.167 116.667V109.167H147.333V116.667H148.167Z" fill="#181A1D" stroke="#181A1D" stroke-width="1.25" stroke-linejoin="round"/>
<path d="M154 103.333L150.667 109.167V116.667H158.167L160.667 108.333H155.667V104.167L154 103.333Z" fill="#181A1D" stroke="#181A1D" stroke-width="1.25" stroke-linejoin="round"/>
<path d="M179.333 108H168.667V116H179.333V108Z" stroke="#181A1D" stroke-miterlimit="10" stroke-linejoin="round"/>
<path d="M171.333 104V103.5C171.057 103.5 170.833 103.724 170.833 104H171.333ZM176.667 104H177.167C177.167 103.724 176.943 103.5 176.667 103.5V104ZM176.167 106C176.167 106.276 176.391 106.5 176.667 106.5C176.943 106.5 177.167 106.276 177.167 106H176.167ZM171.333 108H171.833V104H171.333H170.833V108H171.333ZM171.333 104V104.5H176.667V104V103.5H171.333V104ZM176.667 104H176.167V106H176.667H177.167V104H176.667Z" fill="#181A1D"/>
<path d="M174 111.333V112.667" stroke="#181A1D" stroke-miterlimit="10" stroke-linecap="round" stroke-linejoin="round"/>
<path d="M193 36C193 36 189.088 42 184 42C178.916 42 175 36 175 36C175 36 178.912 30 184 30C189.084 30 193 36 193 36Z" stroke="#191919" stroke-miterlimit="10"/>
<path d="M184 39.5C185.933 39.5 187.5 37.933 187.5 36C187.5 34.067 185.933 32.5 184 32.5C182.067 32.5 180.5 34.067 180.5 36C180.5 37.933 182.067 39.5 184 39.5Z" stroke="#191919" stroke-miterlimit="10"/>
<path d="M176 28L192 44" stroke="#191919" stroke-linecap="round"/>
<path d="M217 36C217 36 213.088 42 208 42C202.916 42 199 36 199 36C199 36 202.912 30 208 30C213.084 30 217 36 217 36Z" stroke="#191919" stroke-miterlimit="10"/>
<path d="M208 39.5C209.933 39.5 211.5 37.933 211.5 36C211.5 34.067 209.933 32.5 208 32.5C206.067 32.5 204.5 34.067 204.5 36C204.5 37.933 206.067 39.5 208 39.5Z" stroke="#191919" stroke-miterlimit="10"/>
<path d="M232 44C236.418 44 240 40.4183 240 36C240 31.5817 236.418 28 232 28C227.582 28 224 31.5817 224 36C224 40.4183 227.582 44 232 44Z" stroke="#DEDEE4" stroke-linejoin="round"/>
<path d="M232 36V39" stroke="#181A1D" stroke-width="1.5" stroke-linecap="round"/>
<path d="M232 33V33.0001" stroke="#181A1D" stroke-width="1.5" stroke-linecap="round"/>
<path d="M189.833 109.167L194 113.333L198.167 109.167" stroke="#181A1D" stroke-linecap="round" stroke-linejoin="round"/>
<path d="M187.333 116.667H200.667" stroke="#181A1D" stroke-miterlimit="10" stroke-linecap="round"/>
<path d="M194 103.333V113.333" stroke="#181A1D" stroke-miterlimit="10" stroke-linecap="round"/>
<path d="M256 45C260.971 45 265 40.9706 265 36C265 31.0294 260.971 27 256 27C251.029 27 247 31.0294 247 36C247 40.9706 251.029 45 256 45Z" fill="#FFA800" stroke="#FFA800" stroke-width="1.5" stroke-miterlimit="10"/>
<path d="M256.531 32.5C257.04 32.5 257.449 32.5432 257.769 32.6201L257.774 32.6211C258.096 32.6947 258.371 32.8232 258.64 32.998L258.643 33.001C258.897 33.1636 259.093 33.3984 259.273 33.7305C259.38 33.9278 259.448 34.1619 259.479 34.4434V34.8066C259.479 35.181 259.425 35.5209 259.307 35.833C259.183 36.1576 259.031 36.4093 258.838 36.6211C258.677 36.7734 258.541 36.9008 258.394 37.0078C258.245 37.1155 258.076 37.2075 257.887 37.2822C257.691 37.3593 257.473 37.419 257.221 37.4873C257.039 37.5366 256.783 37.5596 256.469 37.5596H254.778V40.5H253.5V32.5H256.531ZM254.778 36.8662H256.059C256.204 36.8662 256.414 36.8667 256.621 36.8174C256.738 36.8078 256.837 36.7775 256.902 36.7549C257.014 36.7162 257.02 36.7093 257.09 36.6875C257.329 36.6134 257.494 36.4733 257.593 36.3711L257.594 36.3721C257.596 36.3695 257.598 36.3658 257.601 36.3633C257.606 36.3578 257.612 36.3538 257.617 36.3486L257.616 36.3477C257.808 36.1598 257.967 35.9395 258.038 35.6797C258.122 35.4383 258.14 35.1535 258.14 34.8965V34.8516C258.14 34.5239 258.057 34.197 257.866 33.9209C257.71 33.6949 257.497 33.4792 257.212 33.3633H257.211C256.982 33.2652 256.688 33.1709 256.407 33.1709H254.778V36.8662Z" fill="#FFE5B2" stroke="#FFE5B2"/>
<path d="M290 42.5L290 29L270 29L270 42.5C270 42.7761 270.224 43 270.5 43L289.5 43C289.776 43 290 42.7761 290 42.5Z" fill="#2BB870" stroke="#2BB870" stroke-width="1.5" stroke-linejoin="round"/>
<path d="M272 37C273.6 37 273.963 37 274 37" stroke="white" stroke-width="2" stroke-linecap="round"/>
<rect x="270" y="32" width="20" height="2" fill="#D9D9D9"/>
<path d="M309 32H306V39H307H312H313V35L309 32Z" fill="#7A95FF" stroke="#7A95FF" stroke-width="1.5" stroke-linecap="round" stroke-linejoin="round"/>
<path d="M311 35.25C310.586 35.25 310.25 35.5858 310.25 36C310.25 36.4142 310.586 36.75 311 36.75V35.25ZM313 36.75H313.75V35.25H313V36.75ZM311 36V36.75C311.003 36.75 311.006 36.75 311.009 36.75C311.012 36.75 311.016 36.75 311.019 36.75C311.022 36.75 311.025 36.75 311.028 36.75C311.031 36.75 311.034 36.75 311.037 36.75C311.04 36.75 311.043 36.75 311.047 36.75C311.05 36.75 311.053 36.75 311.056 36.75C311.059 36.75 311.062 36.75 311.065 36.75C311.068 36.75 311.071 36.75 311.074 36.75C311.077 36.75 311.08 36.75 311.083 36.75C311.086 36.75 311.089 36.75 311.092 36.75C311.095 36.75 311.098 36.75 311.101 36.75C311.104 36.75 311.107 36.75 311.11 36.75C311.113 36.75 311.116 36.75 311.119 36.75C311.123 36.75 311.125 36.75 311.128 36.75C311.131 36.75 311.134 36.75 311.137 36.75C311.14 36.75 311.143 36.75 311.146 36.75C311.149 36.75 311.152 36.75 311.155 36.75C311.158 36.75 311.161 36.75 311.164 36.75C311.167 36.75 311.17 36.75 311.173 36.75C311.176 36.75 311.179 36.75 311.182 36.75C311.185 36.75 311.188 36.75 311.191 36.75C311.194 36.75 311.197 36.75 311.199 36.75C311.202 36.75 311.205 36.75 311.208 36.75C311.211 36.75 311.214 36.75 311.217 36.75C311.22 36.75 311.223 36.75 311.226 36.75C311.229 36.75 311.231 36.75 311.234 36.75C311.237 36.75 311.24 36.75 311.243 36.75C311.246 36.75 311.249 36.75 311.252 36.75C311.254 36.75 311.257 36.75 311.26 36.75C311.263 36.75 311.266 36.75 311.269 36.75C311.272 36.75 311.274 36.75 311.277 36.75C311.28 36.75 311.283 36.75 311.286 36.75C311.289 36.75 311.291 36.75 311.294 36.75C311.297 36.75 311.3 36.75 311.303 36.75C311.305 36.75 311.308 36.75 311.311 36.75C311.314 36.75 311.317 36.75 311.319 36.75C311.322 36.75 311.325 36.75 311.328 36.75C311.331 36.75 311.333 36.75 311.336 36.75C311.339 36.75 311.342 36.75 311.344 36.75C311.347 36.75 311.35 36.75 311.353 36.75C311.356 36.75 311.358 36.75 311.361 36.75C311.364 36.75 311.367 36.75 311.369 36.75C311.372 36.75 311.375 36.75 311.377 36.75C311.38 36.75 311.383 36.75 311.386 36.75C311.388 36.75 311.391 36.75 311.394 36.75C311.397 36.75 311.399 36.75 311.402 36.75C311.405 36.75 311.407 36.75 311.41 36.75C311.413 36.75 311.415 36.75 311.418 36.75C311.421 36.75 311.424 36.75 311.426 36.75C311.429 36.75 311.432 36.75 311.434 36.75C311.437 36.75 311.44 36.75 311.442 36.75C311.445 36.75 311.448 36.75 311.45 36.75C311.453 36.75 311.455 36.75 311.458 36.75C311.461 36.75 311.463 36.75 311.466 36.75C311.469 36.75 311.471 36.75 311.474 36.75C311.477 36.75 311.479 36.75 311.482 36.75C311.484 36.75 311.487 36.75 311.49 36.75C311.492 36.75 311.495 36.75 311.497 36.75C311.5 36.75 311.503 36.75 311.505 36.75C311.508 36.75 311.51 36.75 311.513 36.75C311.516 36.75 311.518 36.75 311.521 36.75C311.523 36.75 311.526 36.75 311.528 36.75C311.531 36.75 311.534 36.75 311.536 36.75C311.539 36.75 311.541 36.75 311.544 36.75C311.546 36.75 311.549 36.75 311.551 36.75C311.554 36.75 311.557 36.75 311.559 36.75C311.562 36.75 311.564 36.75 311.567 36.75C311.569 36.75 311.572 36.75 311.574 36.75C311.577 36.75 311.579 36.75 311.582 36.75C311.584 36.75 311.587 36.75 311.589 36.75C311.592 36.75 311.594 36.75 311.597 36.75C311.599 36.75 311.602 36.75 311.604 36.75C311.607 36.75 311.609 36.75 311.612 36.75C311.614 36.75 311.617 36.75 311.619 36.75C311.621 36.75 311.624 36.75 311.626 36.75C311.629 36.75 311.631 36.75 311.634 36.75C311.636 36.75 311.639 36.75 311.641 36.75C311.643 36.75 311.646 36.75 311.648 36.75C311.651 36.75 311.653 36.75 311.656 36.75C311.658 36.75 311.66 36.75 311.663 36.75C311.665 36.75 311.668 36.75 311.67 36.75C311.673 36.75 311.675 36.75 311.677 36.75C311.68 36.75 311.682 36.75 311.684 36.75C311.687 36.75 311.689 36.75 311.692 36.75C311.694 36.75 311.696 36.75 311.699 36.75C311.701 36.75 311.704 36.75 311.706 36.75C311.708 36.75 311.711 36.75 311.713 36.75C311.715 36.75 311.718 36.75 311.72 36.75C311.722 36.75 311.725 36.75 311.727 36.75C311.729 36.75 311.732 36.75 311.734 36.75C311.736 36.75 311.739 36.75 311.741 36.75C311.743 36.75 311.746 36.75 311.748 36.75C311.75 36.75 311.753 36.75 311.755 36.75C311.757 36.75 311.76 36.75 311.762 36.75C311.764 36.75 311.766 36.75 311.769 36.75C311.771 36.75 311.773 36.75 311.776 36.75C311.778 36.75 311.78 36.75 311.782 36.75C311.785 36.75 311.787 36.75 311.789 36.75C311.791 36.75 311.794 36.75 311.796 36.75C311.798 36.75 311.8 36.75 311.803 36.75C311.805 36.75 311.807 36.75 311.809 36.75C311.812 36.75 311.814 36.75 311.816 36.75C311.818 36.75 311.821 36.75 311.823 36.75C311.825 36.75 311.827 36.75 311.83 36.75C311.832 36.75 311.834 36.75 311.836 36.75C311.838 36.75 311.841 36.75 311.843 36.75C311.845 36.75 311.847 36.75 311.849 36.75C311.852 36.75 311.854 36.75 311.856 36.75C311.858 36.75 311.86 36.75 311.862 36.75C311.865 36.75 311.867 36.75 311.869 36.75C311.871 36.75 311.873 36.75 311.875 36.75C311.878 36.75 311.88 36.75 311.882 36.75C311.884 36.75 311.886 36.75 311.888 36.75C311.891 36.75 311.893 36.75 311.895 36.75C311.897 36.75 311.899 36.75 311.901 36.75C311.903 36.75 311.905 36.75 311.908 36.75C311.91 36.75 311.912 36.75 311.914 36.75C311.916 36.75 311.918 36.75 311.92 36.75C311.922 36.75 311.924 36.75 311.927 36.75C311.929 36.75 311.931 36.75 311.933 36.75C311.935 36.75 311.937 36.75 311.939 36.75C311.941 36.75 311.943 36.75 311.945 36.75C311.947 36.75 311.95 36.75 311.952 36.75C311.954 36.75 311.956 36.75 311.958 36.75C311.96 36.75 311.962 36.75 311.964 36.75C311.966 36.75 311.968 36.75 311.97 36.75C311.972 36.75 311.974 36.75 311.976 36.75C311.978 36.75 311.98 36.75 311.982 36.75C311.984 36.75 311.986 36.75 311.988 36.75C311.99 36.75 311.992 36.75 311.994 36.75C311.996 36.75 311.998 36.75 312 36.75C312.002 36.75 312.004 36.75 312.006 36.75C312.008 36.75 312.01 36.75 312.012 36.75C312.014 36.75 312.016 36.75 312.018 36.75C312.02 36.75 312.022 36.75 312.024 36.75C312.026 36.75 312.028 36.75 312.03 36.75C312.032 36.75 312.034 36.75 312.036 36.75C312.038 36.75 312.04 36.75 312.042 36.75C312.044 36.75 312.046 36.75 312.048 36.75C312.05 36.75 312.052 36.75 312.054 36.75C312.056 36.75 312.058 36.75 312.059 36.75C312.061 36.75 312.063 36.75 312.065 36.75C312.067 36.75 312.069 36.75 312.071 36.75C312.073 36.75 312.075 36.75 312.077 36.75C312.079 36.75 312.081 36.75 312.082 36.75C312.084 36.75 312.086 36.75 312.088 36.75C312.09 36.75 312.092 36.75 312.094 36.75C312.096 36.75 312.098 36.75 312.099 36.75C312.101 36.75 312.103 36.75 312.105 36.75C312.107 36.75 312.109 36.75 312.111 36.75C312.112 36.75 312.114 36.75 312.116 36.75C312.118 36.75 312.12 36.75 312.122 36.75C312.124 36.75 312.125 36.75 312.127 36.75C312.129 36.75 312.131 36.75 312.133 36.75C312.135 36.75 312.136 36.75 312.138 36.75C312.14 36.75 312.142 36.75 312.144 36.75C312.146 36.75 312.147 36.75 312.149 36.75C312.151 36.75 312.153 36.75 312.155 36.75C312.156 36.75 312.158 36.75 312.16 36.75C312.162 36.75 312.164 36.75 312.165 36.75C312.167 36.75 312.169 36.75 312.171 36.75C312.173 36.75 312.174 36.75 312.176 36.75C312.178 36.75 312.18 36.75 312.181 36.75C312.183 36.75 312.185 36.75 312.187 36.75C312.188 36.75 312.19 36.75 312.192 36.75C312.194 36.75 312.195 36.75 312.197 36.75C312.199 36.75 312.201 36.75 312.202 36.75C312.204 36.75 312.206 36.75 312.208 36.75C312.209 36.75 312.211 36.75 312.213 36.75C312.215 36.75 312.216 36.75 312.218 36.75C312.22 36.75 312.221 36.75 312.223 36.75C312.225 36.75 312.227 36.75 312.228 36.75C312.23 36.75 312.232 36.75 312.233 36.75C312.235 36.75 312.237 36.75 312.238 36.75C312.24 36.75 312.242 36.75 312.243 36.75C312.245 36.75 312.247 36.75 312.248 36.75C312.25 36.75 312.252 36.75 312.254 36.75C312.255 36.75 312.257 36.75 312.258 36.75C312.26 36.75 312.262 36.75 312.263 36.75C312.265 36.75 312.267 36.75 312.268 36.75C312.27 36.75 312.272 36.75 312.273 36.75C312.275 36.75 312.277 36.75 312.278 36.75C312.28 36.75 312.282 36.75 312.283 36.75C312.285 36.75 312.286 36.75 312.288 36.75C312.29 36.75 312.291 36.75 312.293 36.75C312.294 36.75 312.296 36.75 312.298 36.75C312.299 36.75 312.301 36.75 312.302 36.75C312.304 36.75 312.306 36.75 312.307 36.75C312.309 36.75 312.31 36.75 312.312 36.75C312.314 36.75 312.315 36.75 312.317 36.75C312.318 36.75 312.32 36.75 312.321 36.75C312.323 36.75 312.325 36.75 312.326 36.75C312.328 36.75 312.329 36.75 312.331 36.75C312.332 36.75 312.334 36.75 312.336 36.75C312.337 36.75 312.339 36.75 312.34 36.75C312.342 36.75 312.343 36.75 312.345 36.75C312.346 36.75 312.348 36.75 312.349 36.75C312.351 36.75 312.352 36.75 312.354 36.75C312.355 36.75 312.357 36.75 312.358 36.75C312.36 36.75 312.362 36.75 312.363 36.75C312.365 36.75 312.366 36.75 312.368 36.75C312.369 36.75 312.371 36.75 312.372 36.75C312.374 36.75 312.375 36.75 312.377 36.75C312.378 36.75 312.38 36.75 312.381 36.75C312.382 36.75 312.384 36.75 312.385 36.75C312.387 36.75 312.388 36.75 312.39 36.75C312.391 36.75 312.393 36.75 312.394 36.75C312.396 36.75 312.397 36.75 312.399 36.75C312.4 36.75 312.402 36.75 312.403 36.75C312.404 36.75 312.406 36.75 312.407 36.75C312.409 36.75 312.41 36.75 312.412 36.75C312.413 36.75 312.414 36.75 312.416 36.75C312.417 36.75 312.419 36.75 312.42 36.75C312.422 36.75 312.423 36.75 312.424 36.75C312.426 36.75 312.427 36.75 312.429 36.75C312.43 36.75 312.432 36.75 312.433 36.75C312.434 36.75 312.436 36.75 312.437 36.75C312.439 36.75 312.44 36.75 312.441 36.75C312.443 36.75 312.444 36.75 312.445 36.75C312.447 36.75 312.448 36.75 312.45 36.75C312.451 36.75 312.452 36.75 312.454 36.75C312.455 36.75 312.456 36.75 312.458 36.75C312.459 36.75 312.461 36.75 312.462 36.75C312.463 36.75 312.465 36.75 312.466 36.75C312.467 36.75 312.469 36.75 312.47 36.75C312.471 36.75 312.473 36.75 312.474 36.75C312.475 36.75 312.477 36.75 312.478 36.75C312.479 36.75 312.481 36.75 312.482 36.75C312.483 36.75 312.485 36.75 312.486 36.75C312.487 36.75 312.489 36.75 312.49 36.75C312.491 36.75 312.493 36.75 312.494 36.75C312.495 36.75 312.496 36.75 312.498 36.75C312.499 36.75 312.5 36.75 312.502 36.75C312.503 36.75 312.504 36.75 312.506 36.75C312.507 36.75 312.508 36.75 312.509 36.75C312.511 36.75 312.512 36.75 312.513 36.75C312.515 36.75 312.516 36.75 312.517 36.75C312.518 36.75 312.52 36.75 312.521 36.75C312.522 36.75 312.523 36.75 312.525 36.75C312.526 36.75 312.527 36.75 312.528 36.75C312.53 36.75 312.531 36.75 312.532 36.75C312.533 36.75 312.535 36.75 312.536 36.75C312.537 36.75 312.538 36.75 312.54 36.75C312.541 36.75 312.542 36.75 312.543 36.75C312.545 36.75 312.546 36.75 312.547 36.75C312.548 36.75 312.549 36.75 312.551 36.75C312.552 36.75 312.553 36.75 312.554 36.75C312.555 36.75 312.557 36.75 312.558 36.75C312.559 36.75 312.56 36.75 312.561 36.75C312.563 36.75 312.564 36.75 312.565 36.75C312.566 36.75 312.567 36.75 312.569 36.75C312.57 36.75 312.571 36.75 312.572 36.75C312.573 36.75 312.574 36.75 312.576 36.75C312.577 36.75 312.578 36.75 312.579 36.75C312.58 36.75 312.581 36.75 312.583 36.75C312.584 36.75 312.585 36.75 312.586 36.75C312.587 36.75 312.588 36.75 312.59 36.75C312.591 36.75 312.592 36.75 312.593 36.75C312.594 36.75 312.595 36.75 312.596 36.75C312.598 36.75 312.599 36.75 312.6 36.75C312.601 36.75 312.602 36.75 312.603 36.75C312.604 36.75 312.605 36.75 312.607 36.75C312.608 36.75 312.609 36.75 312.61 36.75C312.611 36.75 312.612 36.75 312.613 36.75C312.614 36.75 312.615 36.75 312.617 36.75C312.618 36.75 312.619 36.75 312.62 36.75C312.621 36.75 312.622 36.75 312.623 36.75C312.624 36.75 312.625 36.75 312.626 36.75C312.627 36.75 312.629 36.75 312.63 36.75C312.631 36.75 312.632 36.75 312.633 36.75C312.634 36.75 312.635 36.75 312.636 36.75C312.637 36.75 312.638 36.75 312.639 36.75C312.64 36.75 312.641 36.75 312.642 36.75C312.643 36.75 312.645 36.75 312.646 36.75C312.647 36.75 312.648 36.75 312.649 36.75C312.65 36.75 312.651 36.75 312.652 36.75C312.653 36.75 312.654 36.75 312.655 36.75C312.656 36.75 312.657 36.75 312.658 36.75C312.659 36.75 312.66 36.75 312.661 36.75C312.662 36.75 312.663 36.75 312.664 36.75C312.665 36.75 312.666 36.75 312.667 36.75C312.668 36.75 312.669 36.75 312.67 36.75C312.671 36.75 312.672 36.75 312.673 36.75C312.674 36.75 312.675 36.75 312.676 36.75C312.677 36.75 312.678 36.75 312.679 36.75C312.68 36.75 312.681 36.75 312.682 36.75C312.683 36.75 312.684 36.75 312.685 36.75C312.686 36.75 312.687 36.75 312.688 36.75C312.689 36.75 312.69 36.75 312.691 36.75C312.692 36.75 312.693 36.75 312.694 36.75C312.695 36.75 312.696 36.75 312.697 36.75C312.698 36.75 312.698 36.75 312.699 36.75C312.7 36.75 312.701 36.75 312.702 36.75C312.703 36.75 312.704 36.75 312.705 36.75C312.706 36.75 312.707 36.75 312.708 36.75C312.709 36.75 312.71 36.75 312.711 36.75C312.712 36.75 312.713 36.75 312.713 36.75C312.714 36.75 312.715 36.75 312.716 36.75C312.717 36.75 312.718 36.75 312.719 36.75C312.72 36.75 312.721 36.75 312.722 36.75C312.723 36.75 312.723 36.75 312.724 36.75C312.725 36.75 312.726 36.75 312.727 36.75C312.728 36.75 312.729 36.75 312.73 36.75C312.731 36.75 312.732 36.75 312.732 36.75C312.733 36.75 312.734 36.75 312.735 36.75C312.736 36.75 312.737 36.75 312.738 36.75C312.739 36.75 312.739 36.75 312.74 36.75C312.741 36.75 312.742 36.75 312.743 36.75C312.744 36.75 312.745 36.75 312.745 36.75C312.746 36.75 312.747 36.75 312.748 36.75C312.749 36.75 312.75 36.75 312.751 36.75C312.751 36.75 312.752 36.75 312.753 36.75C312.754 36.75 312.755 36.75 312.756 36.75C312.756 36.75 312.757 36.75 312.758 36.75C312.759 36.75 312.76 36.75 312.761 36.75C312.761 36.75 312.762 36.75 312.763 36.75C312.764 36.75 312.765 36.75 312.766 36.75C312.766 36.75 312.767 36.75 312.768 36.75C312.769 36.75 312.77 36.75 312.77 36.75C312.771 36.75 312.772 36.75 312.773 36.75C312.774 36.75 312.774 36.75 312.775 36.75C312.776 36.75 312.777 36.75 312.778 36.75C312.778 36.75 312.779 36.75 312.78 36.75C312.781 36.75 312.781 36.75 312.782 36.75C312.783 36.75 312.784 36.75 312.785 36.75C312.785 36.75 312.786 36.75 312.787 36.75C312.788 36.75 312.788 36.75 312.789 36.75C312.79 36.75 312.791 36.75 312.792 36.75C312.792 36.75 312.793 36.75 312.794 36.75C312.795 36.75 312.795 36.75 312.796 36.75C312.797 36.75 312.798 36.75 312.798 36.75C312.799 36.75 312.8 36.75 312.8 36.75C312.801 36.75 312.802 36.75 312.803 36.75C312.803 36.75 312.804 36.75 312.805 36.75C312.806 36.75 312.806 36.75 312.807 36.75C312.808 36.75 312.809 36.75 312.809 36.75C312.81 36.75 312.811 36.75 312.811 36.75C312.812 36.75 312.813 36.75 312.814 36.75C312.814 36.75 312.815 36.75 312.816 36.75C312.816 36.75 312.817 36.75 312.818 36.75C312.818 36.75 312.819 36.75 312.82 36.75C312.821 36.75 312.821 36.75 312.822 36.75C312.823 36.75 312.823 36.75 312.824 36.75C312.825 36.75 312.825 36.75 312.826 36.75C312.827 36.75 312.827 36.75 312.828 36.75C312.829 36.75 312.829 36.75 312.83 36.75C312.831 36.75 312.831 36.75 312.832 36.75C312.833 36.75 312.833 36.75 312.834 36.75C312.835 36.75 312.835 36.75 312.836 36.75C312.837 36.75 312.837 36.75 312.838 36.75C312.839 36.75 312.839 36.75 312.84 36.75C312.841 36.75 312.841 36.75 312.842 36.75C312.843 36.75 312.843 36.75 312.844 36.75C312.845 36.75 312.845 36.75 312.846 36.75C312.846 36.75 312.847 36.75 312.848 36.75C312.848 36.75 312.849 36.75 312.85 36.75C312.85 36.75 312.851 36.75 312.851 36.75C312.852 36.75 312.853 36.75 312.853 36.75C312.854 36.75 312.855 36.75 312.855 36.75C312.856 36.75 312.856 36.75 312.857 36.75C312.858 36.75 312.858 36.75 312.859 36.75C312.859 36.75 312.86 36.75 312.861 36.75C312.861 36.75 312.862 36.75 312.862 36.75C312.863 36.75 312.864 36.75 312.864 36.75C312.865 36.75 312.865 36.75 312.866 36.75C312.867 36.75 312.867 36.75 312.868 36.75C312.868 36.75 312.869 36.75 312.869 36.75C312.87 36.75 312.871 36.75 312.871 36.75C312.872 36.75 312.872 36.75 312.873 36.75C312.873 36.75 312.874 36.75 312.875 36.75C312.875 36.75 312.876 36.75 312.876 36.75C312.877 36.75 312.877 36.75 312.878 36.75C312.878 36.75 312.879 36.75 312.88 36.75C312.88 36.75 312.881 36.75 312.881 36.75C312.882 36.75 312.882 36.75 312.883 36.75C312.883 36.75 312.884 36.75 312.884 36.75C312.885 36.75 312.885 36.75 312.886 36.75C312.887 36.75 312.887 36.75 312.888 36.75C312.888 36.75 312.889 36.75 312.889 36.75C312.89 36.75 312.89 36.75 312.891 36.75C312.891 36.75 312.892 36.75 312.892 36.75C312.893 36.75 312.893 36.75 312.894 36.75C312.894 36.75 312.895 36.75 312.895 36.75C312.896 36.75 312.896 36.75 312.897 36.75C312.897 36.75 312.898 36.75 312.898 36.75C312.899 36.75 312.899 36.75 312.9 36.75C312.9 36.75 312.901 36.75 312.901 36.75C312.902 36.75 312.902 36.75 312.903 36.75C312.903 36.75 312.904 36.75 312.904 36.75C312.905 36.75 312.905 36.75 312.906 36.75C312.906 36.75 312.907 36.75 312.907 36.75C312.908 36.75 312.908 36.75 312.909 36.75C312.909 36.75 312.909 36.75 312.91 36.75C312.91 36.75 312.911 36.75 312.911 36.75C312.912 36.75 312.912 36.75 312.913 36.75C312.913 36.75 312.914 36.75 312.914 36.75C312.914 36.75 312.915 36.75 312.915 36.75C312.916 36.75 312.916 36.75 312.917 36.75C312.917 36.75 312.918 36.75 312.918 36.75C312.918 36.75 312.919 36.75 312.919 36.75C312.92 36.75 312.92 36.75 312.921 36.75C312.921 36.75 312.922 36.75 312.922 36.75C312.922 36.75 312.923 36.75 312.923 36.75C312.924 36.75 312.924 36.75 312.925 36.75C312.925 36.75 312.925 36.75 312.926 36.75C312.926 36.75 312.927 36.75 312.927 36.75C312.927 36.75 312.928 36.75 312.928 36.75C312.929 36.75 312.929 36.75 312.929 36.75C312.93 36.75 312.93 36.75 312.931 36.75C312.931 36.75 312.931 36.75 312.932 36.75C312.932 36.75 312.933 36.75 312.933 36.75C312.933 36.75 312.934 36.75 312.934 36.75C312.935 36.75 312.935 36.75 312.935 36.75C312.936 36.75 312.936 36.75 312.937 36.75C312.937 36.75 312.937 36.75 312.938 36.75C312.938 36.75 312.938 36.75 312.939 36.75C312.939 36.75 312.94 36.75 312.94 36.75C312.94 36.75 312.941 36.75 312.941 36.75C312.941 36.75 312.942 36.75 312.942 36.75C312.942 36.75 312.943 36.75 312.943 36.75C312.944 36.75 312.944 36.75 312.944 36.75C312.945 36.75 312.945 36.75 312.945 36.75C312.946 36.75 312.946 36.75 312.946 36.75C312.947 36.75 312.947 36.75 312.947 36.75C312.948 36.75 312.948 36.75 312.948 36.75C312.949 36.75 312.949 36.75 312.949 36.75C312.95 36.75 312.95 36.75 312.95 36.75C312.951 36.75 312.951 36.75 312.951 36.75C312.952 36.75 312.952 36.75 312.952 36.75C312.953 36.75 312.953 36.75 312.953 36.75C312.954 36.75 312.954 36.75 312.954 36.75C312.955 36.75 312.955 36.75 312.955 36.75C312.956 36.75 312.956 36.75 312.956 36.75C312.957 36.75 312.957 36.75 312.957 36.75C312.957 36.75 312.958 36.75 312.958 36.75C312.958 36.75 312.959 36.75 312.959 36.75C312.959 36.75 312.96 36.75 312.96 36.75C312.96 36.75 312.96 36.75 312.961 36.75C312.961 36.75 312.961 36.75 312.962 36.75C312.962 36.75 312.962 36.75 312.963 36.75C312.963 36.75 312.963 36.75 312.963 36.75C312.964 36.75 312.964 36.75 312.964 36.75C312.964 36.75 312.965 36.75 312.965 36.75C312.965 36.75 312.966 36.75 312.966 36.75C312.966 36.75 312.966 36.75 312.967 36.75C312.967 36.75 312.967 36.75 312.967 36.75C312.968 36.75 312.968 36.75 312.968 36.75C312.969 36.75 312.969 36.75 312.969 36.75C312.969 36.75 312.97 36.75 312.97 36.75C312.97 36.75 312.97 36.75 312.971 36.75C312.971 36.75 312.971 36.75 312.971 36.75C312.972 36.75 312.972 36.75 312.972 36.75C312.972 36.75 312.973 36.75 312.973 36.75C312.973 36.75 312.973 36.75 312.974 36.75C312.974 36.75 312.974 36.75 312.974 36.75C312.974 36.75 312.975 36.75 312.975 36.75C312.975 36.75 312.975 36.75 312.976 36.75C312.976 36.75 312.976 36.75 312.976 36.75C312.977 36.75 312.977 36.75 312.977 36.75C312.977 36.75 312.977 36.75 312.978 36.75C312.978 36.75 312.978 36.75 312.978 36.75C312.979 36.75 312.979 36.75 312.979 36.75C312.979 36.75 312.979 36.75 312.98 36.75C312.98 36.75 312.98 36.75 312.98 36.75C312.98 36.75 312.981 36.75 312.981 36.75C312.981 36.75 312.981 36.75 312.981 36.75C312.982 36.75 312.982 36.75 312.982 36.75C312.982 36.75 312.982 36.75 312.983 36.75C312.983 36.75 312.983 36.75 312.983 36.75C312.983 36.75 312.984 36.75 312.984 36.75C312.984 36.75 312.984 36.75 312.984 36.75C312.985 36.75 312.985 36.75 312.985 36.75C312.985 36.75 312.985 36.75 312.985 36.75C312.986 36.75 312.986 36.75 312.986 36.75C312.986 36.75 312.986 36.75 312.987 36.75C312.987 36.75 312.987 36.75 312.987 36.75C312.987 36.75 312.987 36.75 312.988 36.75C312.988 36.75 312.988 36.75 312.988 36.75C312.988 36.75 312.988 36.75 312.989 36.75C312.989 36.75 312.989 36.75 312.989 36.75C312.989 36.75 312.989 36.75 312.989 36.75C312.99 36.75 312.99 36.75 312.99 36.75C312.99 36.75 312.99 36.75 312.99 36.75C312.991 36.75 312.991 36.75 312.991 36.75C312.991 36.75 312.991 36.75 312.991 36.75C312.991 36.75 312.992 36.75 312.992 36.75C312.992 36.75 312.992 36.75 312.992 36.75C312.992 36.75 312.992 36.75 312.993 36.75C312.993 36.75 312.993 36.75 312.993 36.75C312.993 36.75 312.993 36.75 312.993 36.75C312.993 36.75 312.994 36.75 312.994 36.75C312.994 36.75 312.994 36.75 312.994 36.75C312.994 36.75 312.994 36.75 312.994 36.75C312.995 36.75 312.995 36.75 312.995 36.75C312.995 36.75 312.995 36.75 312.995 36.75C312.995 36.75 312.995 36.75 312.996 36.75C312.996 36.75 312.996 36.75 312.996 36.75C312.996 36.75 312.996 36.75 312.996 36.75C312.996 36.75 312.996 36.75 312.997 36.75C312.997 36.75 312.997 36.75 312.997 36.75C312.997 36.75 312.997 36.75 312.997 36.75C312.997 36.75 312.997 36.75 312.997 36.75C312.998 36.75 312.998 36.75 312.998 36.75C312.998 36.75 312.998 36.75 312.998 36.75C312.998 36.75 312.998 36.75 312.998 36.75C312.998 36.75 312.998 36.75 312.999 36.75C312.999 36.75 312.999 36.75 312.999 36.75C312.999 36.75 312.999 36.75 312.999 36.75C312.999 36.75 312.999 36.75 312.999 36.75C312.999 36.75 312.999 36.75 313 36.75C313 36.75 313 36.75 313 36.75C313 36.75 313 36.75 313 36.75V36V35.25C313 35.25 313 35.25 313 35.25C313 35.25 313 35.25 313 35.25C312.999 35.25 312.999 35.25 312.999 35.25C312.999 35.25 312.999 35.25 312.999 35.25C312.999 35.25 312.999 35.25 312.999 35.25C312.999 35.25 312.999 35.25 312.999 35.25C312.998 35.25 312.998 35.25 312.998 35.25C312.998 35.25 312.998 35.25 312.998 35.25C312.998 35.25 312.998 35.25 312.998 35.25C312.998 35.25 312.998 35.25 312.997 35.25C312.997 35.25 312.997 35.25 312.997 35.25C312.997 35.25 312.997 35.25 312.997 35.25C312.997 35.25 312.997 35.25 312.997 35.25C312.996 35.25 312.996 35.25 312.996 35.25C312.996 35.25 312.996 35.25 312.996 35.25C312.996 35.25 312.996 35.25 312.996 35.25C312.995 35.25 312.995 35.25 312.995 35.25C312.995 35.25 312.995 35.25 312.995 35.25C312.995 35.25 312.995 35.25 312.994 35.25C312.994 35.25 312.994 35.25 312.994 35.25C312.994 35.25 312.994 35.25 312.994 35.25C312.994 35.25 312.993 35.25 312.993 35.25C312.993 35.25 312.993 35.25 312.993 35.25C312.993 35.25 312.993 35.25 312.993 35.25C312.992 35.25 312.992 35.25 312.992 35.25C312.992 35.25 312.992 35.25 312.992 35.25C312.992 35.25 312.991 35.25 312.991 35.25C312.991 35.25 312.991 35.25 312.991 35.25C312.991 35.25 312.991 35.25 312.99 35.25C312.99 35.25 312.99 35.25 312.99 35.25C312.99 35.25 312.99 35.25 312.989 35.25C312.989 35.25 312.989 35.25 312.989 35.25C312.989 35.25 312.989 35.25 312.989 35.25C312.988 35.25 312.988 35.25 312.988 35.25C312.988 35.25 312.988 35.25 312.988 35.25C312.987 35.25 312.987 35.25 312.987 35.25C312.987 35.25 312.987 35.25 312.987 35.25C312.986 35.25 312.986 35.25 312.986 35.25C312.986 35.25 312.986 35.25 312.985 35.25C312.985 35.25 312.985 35.25 312.985 35.25C312.985 35.25 312.985 35.25 312.984 35.25C312.984 35.25 312.984 35.25 312.984 35.25C312.984 35.25 312.983 35.25 312.983 35.25C312.983 35.25 312.983 35.25 312.983 35.25C312.982 35.25 312.982 35.25 312.982 35.25C312.982 35.25 312.982 35.25 312.981 35.25C312.981 35.25 312.981 35.25 312.981 35.25C312.981 35.25 312.98 35.25 312.98 35.25C312.98 35.25 312.98 35.25 312.98 35.25C312.979 35.25 312.979 35.25 312.979 35.25C312.979 35.25 312.979 35.25 312.978 35.25C312.978 35.25 312.978 35.25 312.978 35.25C312.977 35.25 312.977 35.25 312.977 35.25C312.977 35.25 312.977 35.25 312.976 35.25C312.976 35.25 312.976 35.25 312.976 35.25C312.975 35.25 312.975 35.25 312.975 35.25C312.975 35.25 312.974 35.25 312.974 35.25C312.974 35.25 312.974 35.25 312.974 35.25C312.973 35.25 312.973 35.25 312.973 35.25C312.973 35.25 312.972 35.25 312.972 35.25C312.972 35.25 312.972 35.25 312.971 35.25C312.971 35.25 312.971 35.25 312.971 35.25C312.97 35.25 312.97 35.25 312.97 35.25C312.97 35.25 312.969 35.25 312.969 35.25C312.969 35.25 312.969 35.25 312.968 35.25C312.968 35.25 312.968 35.25 312.967 35.25C312.967 35.25 312.967 35.25 312.967 35.25C312.966 35.25 312.966 35.25 312.966 35.25C312.966 35.25 312.965 35.25 312.965 35.25C312.965 35.25 312.964 35.25 312.964 35.25C312.964 35.25 312.964 35.25 312.963 35.25C312.963 35.25 312.963 35.25 312.963 35.25C312.962 35.25 312.962 35.25 312.962 35.25C312.961 35.25 312.961 35.25 312.961 35.25C312.96 35.25 312.96 35.25 312.96 35.25C312.96 35.25 312.959 35.25 312.959 35.25C312.959 35.25 312.958 35.25 312.958 35.25C312.958 35.25 312.957 35.25 312.957 35.25C312.957 35.25 312.957 35.25 312.956 35.25C312.956 35.25 312.956 35.25 312.955 35.25C312.955 35.25 312.955 35.25 312.954 35.25C312.954 35.25 312.954 35.25 312.953 35.25C312.953 35.25 312.953 35.25 312.952 35.25C312.952 35.25 312.952 35.25 312.951 35.25C312.951 35.25 312.951 35.25 312.95 35.25C312.95 35.25 312.95 35.25 312.949 35.25C312.949 35.25 312.949 35.25 312.948 35.25C312.948 35.25 312.948 35.25 312.947 35.25C312.947 35.25 312.947 35.25 312.946 35.25C312.946 35.25 312.946 35.25 312.945 35.25C312.945 35.25 312.945 35.25 312.944 35.25C312.944 35.25 312.944 35.25 312.943 35.25C312.943 35.25 312.942 35.25 312.942 35.25C312.942 35.25 312.941 35.25 312.941 35.25C312.941 35.25 312.94 35.25 312.94 35.25C312.94 35.25 312.939 35.25 312.939 35.25C312.938 35.25 312.938 35.25 312.938 35.25C312.937 35.25 312.937 35.25 312.937 35.25C312.936 35.25 312.936 35.25 312.935 35.25C312.935 35.25 312.935 35.25 312.934 35.25C312.934 35.25 312.933 35.25 312.933 35.25C312.933 35.25 312.932 35.25 312.932 35.25C312.931 35.25 312.931 35.25 312.931 35.25C312.93 35.25 312.93 35.25 312.929 35.25C312.929 35.25 312.929 35.25 312.928 35.25C312.928 35.25 312.927 35.25 312.927 35.25C312.927 35.25 312.926 35.25 312.926 35.25C312.925 35.25 312.925 35.25 312.925 35.25C312.924 35.25 312.924 35.25 312.923 35.25C312.923 35.25 312.922 35.25 312.922 35.25C312.922 35.25 312.921 35.25 312.921 35.25C312.92 35.25 312.92 35.25 312.919 35.25C312.919 35.25 312.918 35.25 312.918 35.25C312.918 35.25 312.917 35.25 312.917 35.25C312.916 35.25 312.916 35.25 312.915 35.25C312.915 35.25 312.914 35.25 312.914 35.25C312.914 35.25 312.913 35.25 312.913 35.25C312.912 35.25 312.912 35.25 312.911 35.25C312.911 35.25 312.91 35.25 312.91 35.25C312.909 35.25 312.909 35.25 312.909 35.25C312.908 35.25 312.908 35.25 312.907 35.25C312.907 35.25 312.906 35.25 312.906 35.25C312.905 35.25 312.905 35.25 312.904 35.25C312.904 35.25 312.903 35.25 312.903 35.25C312.902 35.25 312.902 35.25 312.901 35.25C312.901 35.25 312.9 35.25 312.9 35.25C312.899 35.25 312.899 35.25 312.898 35.25C312.898 35.25 312.897 35.25 312.897 35.25C312.896 35.25 312.896 35.25 312.895 35.25C312.895 35.25 312.894 35.25 312.894 35.25C312.893 35.25 312.893 35.25 312.892 35.25C312.892 35.25 312.891 35.25 312.891 35.25C312.89 35.25 312.89 35.25 312.889 35.25C312.889 35.25 312.888 35.25 312.888 35.25C312.887 35.25 312.887 35.25 312.886 35.25C312.885 35.25 312.885 35.25 312.884 35.25C312.884 35.25 312.883 35.25 312.883 35.25C312.882 35.25 312.882 35.25 312.881 35.25C312.881 35.25 312.88 35.25 312.88 35.25C312.879 35.25 312.878 35.25 312.878 35.25C312.877 35.25 312.877 35.25 312.876 35.25C312.876 35.25 312.875 35.25 312.875 35.25C312.874 35.25 312.873 35.25 312.873 35.25C312.872 35.25 312.872 35.25 312.871 35.25C312.871 35.25 312.87 35.25 312.869 35.25C312.869 35.25 312.868 35.25 312.868 35.25C312.867 35.25 312.867 35.25 312.866 35.25C312.865 35.25 312.865 35.25 312.864 35.25C312.864 35.25 312.863 35.25 312.862 35.25C312.862 35.25 312.861 35.25 312.861 35.25C312.86 35.25 312.859 35.25 312.859 35.25C312.858 35.25 312.858 35.25 312.857 35.25C312.856 35.25 312.856 35.25 312.855 35.25C312.855 35.25 312.854 35.25 312.853 35.25C312.853 35.25 312.852 35.25 312.851 35.25C312.851 35.25 312.85 35.25 312.85 35.25C312.849 35.25 312.848 35.25 312.848 35.25C312.847 35.25 312.846 35.25 312.846 35.25C312.845 35.25 312.845 35.25 312.844 35.25C312.843 35.25 312.843 35.25 312.842 35.25C312.841 35.25 312.841 35.25 312.84 35.25C312.839 35.25 312.839 35.25 312.838 35.25C312.837 35.25 312.837 35.25 312.836 35.25C312.835 35.25 312.835 35.25 312.834 35.25C312.833 35.25 312.833 35.25 312.832 35.25C312.831 35.25 312.831 35.25 312.83 35.25C312.829 35.25 312.829 35.25 312.828 35.25C312.827 35.25 312.827 35.25 312.826 35.25C312.825 35.25 312.825 35.25 312.824 35.25C312.823 35.25 312.823 35.25 312.822 35.25C312.821 35.25 312.821 35.25 312.82 35.25C312.819 35.25 312.818 35.25 312.818 35.25C312.817 35.25 312.816 35.25 312.816 35.25C312.815 35.25 312.814 35.25 312.814 35.25C312.813 35.25 312.812 35.25 312.811 35.25C312.811 35.25 312.81 35.25 312.809 35.25C312.809 35.25 312.808 35.25 312.807 35.25C312.806 35.25 312.806 35.25 312.805 35.25C312.804 35.25 312.803 35.25 312.803 35.25C312.802 35.25 312.801 35.25 312.8 35.25C312.8 35.25 312.799 35.25 312.798 35.25C312.798 35.25 312.797 35.25 312.796 35.25C312.795 35.25 312.795 35.25 312.794 35.25C312.793 35.25 312.792 35.25 312.792 35.25C312.791 35.25 312.79 35.25 312.789 35.25C312.788 35.25 312.788 35.25 312.787 35.25C312.786 35.25 312.785 35.25 312.785 35.25C312.784 35.25 312.783 35.25 312.782 35.25C312.781 35.25 312.781 35.25 312.78 35.25C312.779 35.25 312.778 35.25 312.778 35.25C312.777 35.25 312.776 35.25 312.775 35.25C312.774 35.25 312.774 35.25 312.773 35.25C312.772 35.25 312.771 35.25 312.77 35.25C312.77 35.25 312.769 35.25 312.768 35.25C312.767 35.25 312.766 35.25 312.766 35.25C312.765 35.25 312.764 35.25 312.763 35.25C312.762 35.25 312.761 35.25 312.761 35.25C312.76 35.25 312.759 35.25 312.758 35.25C312.757 35.25 312.756 35.25 312.756 35.25C312.755 35.25 312.754 35.25 312.753 35.25C312.752 35.25 312.751 35.25 312.751 35.25C312.75 35.25 312.749 35.25 312.748 35.25C312.747 35.25 312.746 35.25 312.745 35.25C312.745 35.25 312.744 35.25 312.743 35.25C312.742 35.25 312.741 35.25 312.74 35.25C312.739 35.25 312.739 35.25 312.738 35.25C312.737 35.25 312.736 35.25 312.735 35.25C312.734 35.25 312.733 35.25 312.732 35.25C312.732 35.25 312.731 35.25 312.73 35.25C312.729 35.25 312.728 35.25 312.727 35.25C312.726 35.25 312.725 35.25 312.724 35.25C312.723 35.25 312.723 35.25 312.722 35.25C312.721 35.25 312.72 35.25 312.719 35.25C312.718 35.25 312.717 35.25 312.716 35.25C312.715 35.25 312.714 35.25 312.713 35.25C312.713 35.25 312.712 35.25 312.711 35.25C312.71 35.25 312.709 35.25 312.708 35.25C312.707 35.25 312.706 35.25 312.705 35.25C312.704 35.25 312.703 35.25 312.702 35.25C312.701 35.25 312.7 35.25 312.699 35.25C312.698 35.25 312.698 35.25 312.697 35.25C312.696 35.25 312.695 35.25 312.694 35.25C312.693 35.25 312.692 35.25 312.691 35.25C312.69 35.25 312.689 35.25 312.688 35.25C312.687 35.25 312.686 35.25 312.685 35.25C312.684 35.25 312.683 35.25 312.682 35.25C312.681 35.25 312.68 35.25 312.679 35.25C312.678 35.25 312.677 35.25 312.676 35.25C312.675 35.25 312.674 35.25 312.673 35.25C312.672 35.25 312.671 35.25 312.67 35.25C312.669 35.25 312.668 35.25 312.667 35.25C312.666 35.25 312.665 35.25 312.664 35.25C312.663 35.25 312.662 35.25 312.661 35.25C312.66 35.25 312.659 35.25 312.658 35.25C312.657 35.25 312.656 35.25 312.655 35.25C312.654 35.25 312.653 35.25 312.652 35.25C312.651 35.25 312.65 35.25 312.649 35.25C312.648 35.25 312.647 35.25 312.646 35.25C312.645 35.25 312.643 35.25 312.642 35.25C312.641 35.25 312.64 35.25 312.639 35.25C312.638 35.25 312.637 35.25 312.636 35.25C312.635 35.25 312.634 35.25 312.633 35.25C312.632 35.25 312.631 35.25 312.63 35.25C312.629 35.25 312.627 35.25 312.626 35.25C312.625 35.25 312.624 35.25 312.623 35.25C312.622 35.25 312.621 35.25 312.62 35.25C312.619 35.25 312.618 35.25 312.617 35.25C312.615 35.25 312.614 35.25 312.613 35.25C312.612 35.25 312.611 35.25 312.61 35.25C312.609 35.25 312.608 35.25 312.607 35.25C312.605 35.25 312.604 35.25 312.603 35.25C312.602 35.25 312.601 35.25 312.6 35.25C312.599 35.25 312.598 35.25 312.596 35.25C312.595 35.25 312.594 35.25 312.593 35.25C312.592 35.25 312.591 35.25 312.59 35.25C312.588 35.25 312.587 35.25 312.586 35.25C312.585 35.25 312.584 35.25 312.583 35.25C312.581 35.25 312.58 35.25 312.579 35.25C312.578 35.25 312.577 35.25 312.576 35.25C312.574 35.25 312.573 35.25 312.572 35.25C312.571 35.25 312.57 35.25 312.569 35.25C312.567 35.25 312.566 35.25 312.565 35.25C312.564 35.25 312.563 35.25 312.561 35.25C312.56 35.25 312.559 35.25 312.558 35.25C312.557 35.25 312.555 35.25 312.554 35.25C312.553 35.25 312.552 35.25 312.551 35.25C312.549 35.25 312.548 35.25 312.547 35.25C312.546 35.25 312.545 35.25 312.543 35.25C312.542 35.25 312.541 35.25 312.54 35.25C312.538 35.25 312.537 35.25 312.536 35.25C312.535 35.25 312.533 35.25 312.532 35.25C312.531 35.25 312.53 35.25 312.528 35.25C312.527 35.25 312.526 35.25 312.525 35.25C312.523 35.25 312.522 35.25 312.521 35.25C312.52 35.25 312.518 35.25 312.517 35.25C312.516 35.25 312.515 35.25 312.513 35.25C312.512 35.25 312.511 35.25 312.509 35.25C312.508 35.25 312.507 35.25 312.506 35.25C312.504 35.25 312.503 35.25 312.502 35.25C312.5 35.25 312.499 35.25 312.498 35.25C312.496 35.25 312.495 35.25 312.494 35.25C312.493 35.25 312.491 35.25 312.49 35.25C312.489 35.25 312.487 35.25 312.486 35.25C312.485 35.25 312.483 35.25 312.482 35.25C312.481 35.25 312.479 35.25 312.478 35.25C312.477 35.25 312.475 35.25 312.474 35.25C312.473 35.25 312.471 35.25 312.47 35.25C312.469 35.25 312.467 35.25 312.466 35.25C312.465 35.25 312.463 35.25 312.462 35.25C312.461 35.25 312.459 35.25 312.458 35.25C312.456 35.25 312.455 35.25 312.454 35.25C312.452 35.25 312.451 35.25 312.45 35.25C312.448 35.25 312.447 35.25 312.445 35.25C312.444 35.25 312.443 35.25 312.441 35.25C312.44 35.25 312.439 35.25 312.437 35.25C312.436 35.25 312.434 35.25 312.433 35.25C312.432 35.25 312.43 35.25 312.429 35.25C312.427 35.25 312.426 35.25 312.424 35.25C312.423 35.25 312.422 35.25 312.42 35.25C312.419 35.25 312.417 35.25 312.416 35.25C312.414 35.25 312.413 35.25 312.412 35.25C312.41 35.25 312.409 35.25 312.407 35.25C312.406 35.25 312.404 35.25 312.403 35.25C312.402 35.25 312.4 35.25 312.399 35.25C312.397 35.25 312.396 35.25 312.394 35.25C312.393 35.25 312.391 35.25 312.39 35.25C312.388 35.25 312.387 35.25 312.385 35.25C312.384 35.25 312.382 35.25 312.381 35.25C312.38 35.25 312.378 35.25 312.377 35.25C312.375 35.25 312.374 35.25 312.372 35.25C312.371 35.25 312.369 35.25 312.368 35.25C312.366 35.25 312.365 35.25 312.363 35.25C312.362 35.25 312.36 35.25 312.358 35.25C312.357 35.25 312.355 35.25 312.354 35.25C312.352 35.25 312.351 35.25 312.349 35.25C312.348 35.25 312.346 35.25 312.345 35.25C312.343 35.25 312.342 35.25 312.34 35.25C312.339 35.25 312.337 35.25 312.336 35.25C312.334 35.25 312.332 35.25 312.331 35.25C312.329 35.25 312.328 35.25 312.326 35.25C312.325 35.25 312.323 35.25 312.321 35.25C312.32 35.25 312.318 35.25 312.317 35.25C312.315 35.25 312.314 35.25 312.312 35.25C312.31 35.25 312.309 35.25 312.307 35.25C312.306 35.25 312.304 35.25 312.302 35.25C312.301 35.25 312.299 35.25 312.298 35.25C312.296 35.25 312.294 35.25 312.293 35.25C312.291 35.25 312.29 35.25 312.288 35.25C312.286 35.25 312.285 35.25 312.283 35.25C312.282 35.25 312.28 35.25 312.278 35.25C312.277 35.25 312.275 35.25 312.273 35.25C312.272 35.25 312.27 35.25 312.268 35.25C312.267 35.25 312.265 35.25 312.263 35.25C312.262 35.25 312.26 35.25 312.258 35.25C312.257 35.25 312.255 35.25 312.254 35.25C312.252 35.25 312.25 35.25 312.248 35.25C312.247 35.25 312.245 35.25 312.243 35.25C312.242 35.25 312.24 35.25 312.238 35.25C312.237 35.25 312.235 35.25 312.233 35.25C312.232 35.25 312.23 35.25 312.228 35.25C312.227 35.25 312.225 35.25 312.223 35.25C312.221 35.25 312.22 35.25 312.218 35.25C312.216 35.25 312.215 35.25 312.213 35.25C312.211 35.25 312.209 35.25 312.208 35.25C312.206 35.25 312.204 35.25 312.202 35.25C312.201 35.25 312.199 35.25 312.197 35.25C312.195 35.25 312.194 35.25 312.192 35.25C312.19 35.25 312.188 35.25 312.187 35.25C312.185 35.25 312.183 35.25 312.181 35.25C312.18 35.25 312.178 35.25 312.176 35.25C312.174 35.25 312.173 35.25 312.171 35.25C312.169 35.25 312.167 35.25 312.165 35.25C312.164 35.25 312.162 35.25 312.16 35.25C312.158 35.25 312.156 35.25 312.155 35.25C312.153 35.25 312.151 35.25 312.149 35.25C312.147 35.25 312.146 35.25 312.144 35.25C312.142 35.25 312.14 35.25 312.138 35.25C312.136 35.25 312.135 35.25 312.133 35.25C312.131 35.25 312.129 35.25 312.127 35.25C312.125 35.25 312.124 35.25 312.122 35.25C312.12 35.25 312.118 35.25 312.116 35.25C312.114 35.25 312.112 35.25 312.111 35.25C312.109 35.25 312.107 35.25 312.105 35.25C312.103 35.25 312.101 35.25 312.099 35.25C312.098 35.25 312.096 35.25 312.094 35.25C312.092 35.25 312.09 35.25 312.088 35.25C312.086 35.25 312.084 35.25 312.082 35.25C312.081 35.25 312.079 35.25 312.077 35.25C312.075 35.25 312.073 35.25 312.071 35.25C312.069 35.25 312.067 35.25 312.065 35.25C312.063 35.25 312.061 35.25 312.059 35.25C312.058 35.25 312.056 35.25 312.054 35.25C312.052 35.25 312.05 35.25 312.048 35.25C312.046 35.25 312.044 35.25 312.042 35.25C312.04 35.25 312.038 35.25 312.036 35.25C312.034 35.25 312.032 35.25 312.03 35.25C312.028 35.25 312.026 35.25 312.024 35.25C312.022 35.25 312.02 35.25 312.018 35.25C312.016 35.25 312.014 35.25 312.012 35.25C312.01 35.25 312.008 35.25 312.006 35.25C312.004 35.25 312.002 35.25 312 35.25C311.998 35.25 311.996 35.25 311.994 35.25C311.992 35.25 311.99 35.25 311.988 35.25C311.986 35.25 311.984 35.25 311.982 35.25C311.98 35.25 311.978 35.25 311.976 35.25C311.974 35.25 311.972 35.25 311.97 35.25C311.968 35.25 311.966 35.25 311.964 35.25C311.962 35.25 311.96 35.25 311.958 35.25C311.956 35.25 311.954 35.25 311.952 35.25C311.95 35.25 311.947 35.25 311.945 35.25C311.943 35.25 311.941 35.25 311.939 35.25C311.937 35.25 311.935 35.25 311.933 35.25C311.931 35.25 311.929 35.25 311.927 35.25C311.924 35.25 311.922 35.25 311.92 35.25C311.918 35.25 311.916 35.25 311.914 35.25C311.912 35.25 311.91 35.25 311.908 35.25C311.905 35.25 311.903 35.25 311.901 35.25C311.899 35.25 311.897 35.25 311.895 35.25C311.893 35.25 311.891 35.25 311.888 35.25C311.886 35.25 311.884 35.25 311.882 35.25C311.88 35.25 311.878 35.25 311.875 35.25C311.873 35.25 311.871 35.25 311.869 35.25C311.867 35.25 311.865 35.25 311.862 35.25C311.86 35.25 311.858 35.25 311.856 35.25C311.854 35.25 311.852 35.25 311.849 35.25C311.847 35.25 311.845 35.25 311.843 35.25C311.841 35.25 311.838 35.25 311.836 35.25C311.834 35.25 311.832 35.25 311.83 35.25C311.827 35.25 311.825 35.25 311.823 35.25C311.821 35.25 311.818 35.25 311.816 35.25C311.814 35.25 311.812 35.25 311.809 35.25C311.807 35.25 311.805 35.25 311.803 35.25C311.8 35.25 311.798 35.25 311.796 35.25C311.794 35.25 311.791 35.25 311.789 35.25C311.787 35.25 311.785 35.25 311.782 35.25C311.78 35.25 311.778 35.25 311.776 35.25C311.773 35.25 311.771 35.25 311.769 35.25C311.766 35.25 311.764 35.25 311.762 35.25C311.76 35.25 311.757 35.25 311.755 35.25C311.753 35.25 311.75 35.25 311.748 35.25C311.746 35.25 311.743 35.25 311.741 35.25C311.739 35.25 311.736 35.25 311.734 35.25C311.732 35.25 311.729 35.25 311.727 35.25C311.725 35.25 311.722 35.25 311.72 35.25C311.718 35.25 311.715 35.25 311.713 35.25C311.711 35.25 311.708 35.25 311.706 35.25C311.704 35.25 311.701 35.25 311.699 35.25C311.696 35.25 311.694 35.25 311.692 35.25C311.689 35.25 311.687 35.25 311.684 35.25C311.682 35.25 311.68 35.25 311.677 35.25C311.675 35.25 311.673 35.25 311.67 35.25C311.668 35.25 311.665 35.25 311.663 35.25C311.66 35.25 311.658 35.25 311.656 35.25C311.653 35.25 311.651 35.25 311.648 35.25C311.646 35.25 311.643 35.25 311.641 35.25C311.639 35.25 311.636 35.25 311.634 35.25C311.631 35.25 311.629 35.25 311.626 35.25C311.624 35.25 311.621 35.25 311.619 35.25C311.617 35.25 311.614 35.25 311.612 35.25C311.609 35.25 311.607 35.25 311.604 35.25C311.602 35.25 311.599 35.25 311.597 35.25C311.594 35.25 311.592 35.25 311.589 35.25C311.587 35.25 311.584 35.25 311.582 35.25C311.579 35.25 311.577 35.25 311.574 35.25C311.572 35.25 311.569 35.25 311.567 35.25C311.564 35.25 311.562 35.25 311.559 35.25C311.557 35.25 311.554 35.25 311.551 35.25C311.549 35.25 311.546 35.25 311.544 35.25C311.541 35.25 311.539 35.25 311.536 35.25C311.534 35.25 311.531 35.25 311.528 35.25C311.526 35.25 311.523 35.25 311.521 35.25C311.518 35.25 311.516 35.25 311.513 35.25C311.51 35.25 311.508 35.25 311.505 35.25C311.503 35.25 311.5 35.25 311.497 35.25C311.495 35.25 311.492 35.25 311.49 35.25C311.487 35.25 311.484 35.25 311.482 35.25C311.479 35.25 311.477 35.25 311.474 35.25C311.471 35.25 311.469 35.25 311.466 35.25C311.463 35.25 311.461 35.25 311.458 35.25C311.455 35.25 311.453 35.25 311.45 35.25C311.448 35.25 311.445 35.25 311.442 35.25C311.44 35.25 311.437 35.25 311.434 35.25C311.432 35.25 311.429 35.25 311.426 35.25C311.424 35.25 311.421 35.25 311.418 35.25C311.415 35.25 311.413 35.25 311.41 35.25C311.407 35.25 311.405 35.25 311.402 35.25C311.399 35.25 311.397 35.25 311.394 35.25C311.391 35.25 311.388 35.25 311.386 35.25C311.383 35.25 311.38 35.25 311.377 35.25C311.375 35.25 311.372 35.25 311.369 35.25C311.367 35.25 311.364 35.25 311.361 35.25C311.358 35.25 311.356 35.25 311.353 35.25C311.35 35.25 311.347 35.25 311.344 35.25C311.342 35.25 311.339 35.25 311.336 35.25C311.333 35.25 311.331 35.25 311.328 35.25C311.325 35.25 311.322 35.25 311.319 35.25C311.317 35.25 311.314 35.25 311.311 35.25C311.308 35.25 311.305 35.25 311.303 35.25C311.3 35.25 311.297 35.25 311.294 35.25C311.291 35.25 311.289 35.25 311.286 35.25C311.283 35.25 311.28 35.25 311.277 35.25C311.274 35.25 311.272 35.25 311.269 35.25C311.266 35.25 311.263 35.25 311.26 35.25C311.257 35.25 311.254 35.25 311.252 35.25C311.249 35.25 311.246 35.25 311.243 35.25C311.24 35.25 311.237 35.25 311.234 35.25C311.231 35.25 311.229 35.25 311.226 35.25C311.223 35.25 311.22 35.25 311.217 35.25C311.214 35.25 311.211 35.25 311.208 35.25C311.205 35.25 311.202 35.25 311.199 35.25C311.197 35.25 311.194 35.25 311.191 35.25C311.188 35.25 311.185 35.25 311.182 35.25C311.179 35.25 311.176 35.25 311.173 35.25C311.17 35.25 311.167 35.25 311.164 35.25C311.161 35.25 311.158 35.25 311.155 35.25C311.152 35.25 311.149 35.25 311.146 35.25C311.143 35.25 311.14 35.25 311.137 35.25C311.134 35.25 311.131 35.25 311.128 35.25C311.125 35.25 311.123 35.25 311.119 35.25C311.116 35.25 311.113 35.25 311.11 35.25C311.107 35.25 311.104 35.25 311.101 35.25C311.098 35.25 311.095 35.25 311.092 35.25C311.089 35.25 311.086 35.25 311.083 35.25C311.08 35.25 311.077 35.25 311.074 35.25C311.071 35.25 311.068 35.25 311.065 35.25C311.062 35.25 311.059 35.25 311.056 35.25C311.053 35.25 311.05 35.25 311.047 35.25C311.043 35.25 311.04 35.25 311.037 35.25C311.034 35.25 311.031 35.25 311.028 35.25C311.025 35.25 311.022 35.25 311.019 35.25C311.016 35.25 311.012 35.25 311.009 35.25C311.006 35.25 311.003 35.25 311 35.25V36Z" fill="#FF4E00"/>
<path d="M295 39H296H301H306V29H295V39Z" fill="#486AF4" stroke="#486AF4" stroke-width="1.5" stroke-linecap="round" stroke-linejoin="round"/>
<circle cx="298.5" cy="40.5" r="1.75" fill="#181A1D" stroke="#181A1D" stroke-width="1.5"/>
<circle cx="309.5" cy="40.5" r="1.75" fill="#181A1D" stroke="#181A1D" stroke-width="1.5"/>
<circle cx="327" cy="35" r="8" stroke="white" stroke-width="1.5" stroke-miterlimit="10"/>
<path d="M327 32V38" stroke="white" stroke-width="1.5" stroke-linecap="round"/>
<path d="M330 35L324 35" stroke="white" stroke-width="1.5" stroke-linecap="round"/>
<path d="M333 41L337 45" stroke="white" stroke-width="1.5" stroke-linecap="round" stroke-linejoin="round"/>
<path d="M142.667 80.6667L146.667 84L153.333 76" stroke="#181A1D" stroke-width="1.5" stroke-linecap="round" stroke-linejoin="round"/>
<path d="M164.794 85C165.07 85 165.294 85.2239 165.294 85.5C165.294 85.7761 165.07 86 164.794 86H162.794C162.518 86 162.294 85.7761 162.294 85.5C162.294 85.2239 162.518 85 162.794 85H164.794ZM163.794 74C164.07 74 164.294 74.2239 164.294 74.5V75.0352C165.99 75.2778 167.294 76.7368 167.294 78.5V81.793C167.294 81.9255 167.347 82.0527 167.44 82.1465L168.44 83.1465C168.755 83.4614 168.532 83.9999 168.087 84H159.501C159.056 84 158.832 83.4615 159.147 83.1465L160.147 82.1465C160.241 82.0527 160.294 81.9255 160.294 81.793V78.5C160.294 76.7367 161.598 75.2777 163.294 75.0352V74.5C163.294 74.2239 163.518 74 163.794 74Z" fill="#181A1D"/>
<path d="M220.667 106.667H207.333V116.667H220.667V106.667Z" stroke="#181A1D" stroke-width="1.25" stroke-linejoin="round"/>
<path d="M213.444 106.667C213.751 106.667 214 106.418 214 106.111V106.111C214 105.936 213.918 105.772 213.778 105.667L211.412 103.892C210.955 103.55 210.344 103.495 209.833 103.75V103.75C209.323 104.005 209 104.536 209 105.107V105.107C209 105.96 209.692 106.667 210.545 106.667H213.444Z" stroke="#181A1D" stroke-width="1.25" stroke-linejoin="round"/>
<path d="M214.556 106.667C214.249 106.667 214 106.418 214 106.111V106.111C214 105.936 214.082 105.772 214.222 105.667L216.588 103.892C217.045 103.55 217.656 103.495 218.167 103.75V103.75C218.677 104.005 219 104.536 219 105.107V105.107C219 105.96 218.308 106.667 217.455 106.667H214.556Z" stroke="#181A1D" stroke-width="1.25" stroke-linejoin="round"/>
<path d="M214 116.667L214 106.667" stroke="#181A1D" stroke-width="1.25" stroke-linejoin="round"/>
<path d="M239.654 105.184C238.314 103.828 236.144 103.828 234.804 105.184L233.996 106L233.189 105.184C231.849 103.828 229.679 103.828 228.339 105.184C226.998 106.539 226.998 108.741 228.339 110.097L230.605 112.393L234.004 115.833L239.661 110.104C241.002 108.748 241.002 106.547 239.661 105.191L239.654 105.184Z" stroke="#181A1D" stroke-width="1.25" stroke-linejoin="round"/>
<path d="M259.654 105.184C258.314 103.828 256.144 103.828 254.804 105.184L253.996 106L253.189 105.184C251.849 103.828 249.679 103.828 248.339 105.184C246.998 106.539 246.998 108.741 248.339 110.097L250.605 112.393L254.004 115.833L259.661 110.104C261.002 108.748 261.002 106.547 259.661 105.191L259.654 105.184Z" fill="#181A1D" stroke="#181A1D" stroke-width="1.25" stroke-linejoin="round"/>
<path d="M279.833 106.667H268.167L267.333 116.667H280.667L279.833 106.667Z" stroke="#181A1D" stroke-width="1.25" stroke-linejoin="round"/>
<path d="M271.5 108.333V105.833C271.5 104.453 272.619 103.333 274 103.333V103.333C275.381 103.333 276.5 104.453 276.5 105.833V108.333" stroke="#181A1D" stroke-width="1.25" stroke-linecap="round"/>
<path d="M290 110V106H294" stroke="white"/>
<path d="M290 106L298 114" stroke="white"/>
<path d="M298 110L298 114L294 114" stroke="white"/>
<path d="M352 28V44" stroke="white" stroke-width="2" stroke-linecap="round"/>
<path d="M360 36H344" stroke="white" stroke-width="2" stroke-linecap="round"/>
<path d="M368 37L374 42L384 30" stroke="white" stroke-width="2" stroke-linecap="round" stroke-linejoin="round"/>
<path d="M319 113.333C320.024 112.533 320.643 111.308 320.667 110C320.643 108.692 320.024 107.467 319 106.667" stroke="#54565B" stroke-miterlimit="10" stroke-linecap="round"/>
<path d="M317.333 111.667C318.25 110.975 318.442 109.667 317.75 108.75C317.633 108.592 317.492 108.45 317.333 108.333" stroke="#54565B" stroke-miterlimit="10" stroke-linecap="round"/>
<path d="M308.167 107.813V112.188H310.167L314.833 115.833V104.167L310.167 107.813H308.167Z" stroke="#54565B" stroke-linecap="round" stroke-linejoin="round"/>
<path d="M332.333 104.167V115.833" stroke="#181A1D" stroke-linejoin="round" stroke-dasharray="0.5 1.5"/>
<path d="M339.417 110C339.417 108.814 340.494 107.857 341.5 107.857V104.167H326.5V107.857C327.506 107.857 328.583 108.814 328.583 110C328.583 111.186 327.506 112.143 326.5 112.143V115.833H341.5V112.143C340.494 112.143 339.417 111.186 339.417 110Z" stroke="#181A1D" stroke-linejoin="round"/>
<rect x="4" y="144" width="20" height="20" rx="2" stroke="#181A1D" stroke-width="1.5"/>
<path d="M14 151V157.5" stroke="#181A1D" stroke-width="1.5" stroke-linecap="round"/>
<path d="M17.2539 154.246L10.7539 154.246" stroke="#181A1D" stroke-width="1.5" stroke-linecap="round"/>
<path d="M200.5 75.5V86C200.5 86.2761 200.276 86.5 200 86.5H192C191.724 86.5 191.5 86.2761 191.5 86V75.5H200.5Z" stroke="#191919"/>
<path d="M194 73.5H198C198.276 73.5 198.5 73.7239 198.5 74V75.5H193.5V74C193.5 73.7583 193.671 73.5563 193.899 73.5098L194 73.5Z" stroke="#191919"/>
<rect x="190.25" y="75.25" width="11.5" height="0.5" rx="0.25" stroke="#191919" stroke-width="0.5"/>
<rect x="194" y="79" width="1" height="4" rx="0.5" fill="#191919"/>
<rect x="197" y="79" width="1" height="4" rx="0.5" fill="#191919"/>
</svg>
