<svg width="180" height="46" viewBox="0 0 180 46" fill="none" xmlns="http://www.w3.org/2000/svg">
<g clip-path="url(#clip0_2116_13364)">
<path d="M78.3325 12.3985L51.8262 28.6519V12.3985H48.2436V34.5L64.5625 24.1972L79.4816 33.5407H85.6927L67.51 22.5204L84.489 12.401L78.3325 12.3985ZM0 33.5392H4.76207L22.0389 16.0647L39.3136 33.5392H44.0819L22.0613 11.5L0 33.5392ZM95.0006 17.8514V29.4866H97.3317V25.4926H104.002C105.209 25.5647 106.404 25.2258 107.389 24.5318C107.776 24.1719 108.086 23.7385 108.3 23.2575C108.515 22.7764 108.628 22.2576 108.635 21.7321C108.642 21.2066 108.541 20.6851 108.34 20.1988C108.138 19.7126 107.839 19.2715 107.461 18.902C106.599 18.175 105.49 17.7997 104.358 17.8523H95.0006M104.428 19.8956C104.904 19.8956 105.361 20.0825 105.697 20.4152C106.034 20.7479 106.223 21.1991 106.223 21.6695C106.223 22.14 106.034 22.5912 105.697 22.9239C105.361 23.2565 104.904 23.4434 104.428 23.4434H97.3317V19.8956H104.428ZM113.016 17.8514V29.4875H124.585V27.4384H115.349V17.8511L113.016 17.8514ZM134.45 17.8514L127.974 29.4875H130.631L135.979 19.8085L141.297 29.4875H143.971L137.492 17.8511L134.45 17.8514ZM170.486 17.8514L164.008 29.4875H166.666L172.014 19.8085L177.33 29.4875H180L173.524 17.8511L170.486 17.8514ZM148.672 17.8514V19.9079H157.51L148.533 27.7451V29.4845H161.749V27.4326H152.363L161.339 19.5868V17.8474L148.672 17.8514Z" fill="#222222"/>
</g>
<defs>
<clipPath id="clip0_2116_13364">
<rect width="180" height="23" fill="white" transform="translate(0 11.5)"/>
</clipPath>
</defs>
</svg>
